<mxfile host="Electron" modified="2024-06-28T07:38:19.793Z" agent="Mozilla/5.0 (Windows NT 10.0; Win64; x64) AppleWebKit/537.36 (KHTML, like Gecko) draw.io/24.6.1 Chrome/124.0.6367.207 Electron/30.0.6 Safari/537.36" etag="fCVfzTcWKVgpcv_Nh2Xu" version="24.6.1" type="device">
  <diagram name="Pagina-1" id="7EENACyShXdz0b0P8qEU">
    <mxGraphModel dx="1290" dy="669" grid="1" gridSize="10" guides="1" tooltips="1" connect="1" arrows="1" fold="1" page="1" pageScale="1" pageWidth="827" pageHeight="1169" math="0" shadow="0">
      <root>
        <mxCell id="0" />
        <mxCell id="1" parent="0" />
        <mxCell id="z-l7okKNlic-L9526pkx-25" style="edgeStyle=orthogonalEdgeStyle;rounded=0;orthogonalLoop=1;jettySize=auto;html=1;endArrow=doubleBlock;endFill=1;" parent="1" source="z-l7okKNlic-L9526pkx-1" target="z-l7okKNlic-L9526pkx-26" edge="1">
          <mxGeometry relative="1" as="geometry">
            <mxPoint x="250" y="240" as="targetPoint" />
          </mxGeometry>
        </mxCell>
        <mxCell id="z-l7okKNlic-L9526pkx-60" style="edgeStyle=orthogonalEdgeStyle;rounded=0;orthogonalLoop=1;jettySize=auto;html=1;endArrow=block;endFill=0;" parent="1" source="z-l7okKNlic-L9526pkx-1" target="z-l7okKNlic-L9526pkx-51" edge="1">
          <mxGeometry relative="1" as="geometry">
            <Array as="points">
              <mxPoint x="120" y="360" />
              <mxPoint x="413" y="360" />
            </Array>
          </mxGeometry>
        </mxCell>
        <mxCell id="z-l7okKNlic-L9526pkx-1" value="Complainant" style="rounded=0;whiteSpace=wrap;html=1;" parent="1" vertex="1">
          <mxGeometry x="60" y="210" width="120" height="60" as="geometry" />
        </mxCell>
        <mxCell id="z-l7okKNlic-L9526pkx-27" style="edgeStyle=orthogonalEdgeStyle;rounded=0;orthogonalLoop=1;jettySize=auto;html=1;entryX=1;entryY=0.5;entryDx=0;entryDy=0;" parent="1" source="z-l7okKNlic-L9526pkx-2" target="z-l7okKNlic-L9526pkx-26" edge="1">
          <mxGeometry relative="1" as="geometry" />
        </mxCell>
        <mxCell id="z-l7okKNlic-L9526pkx-30" style="edgeStyle=orthogonalEdgeStyle;rounded=0;orthogonalLoop=1;jettySize=auto;html=1;entryX=0;entryY=0.5;entryDx=0;entryDy=0;" parent="1" source="z-l7okKNlic-L9526pkx-2" target="z-l7okKNlic-L9526pkx-29" edge="1">
          <mxGeometry relative="1" as="geometry" />
        </mxCell>
        <mxCell id="z-l7okKNlic-L9526pkx-34" style="edgeStyle=orthogonalEdgeStyle;rounded=0;orthogonalLoop=1;jettySize=auto;html=1;entryX=0;entryY=0.5;entryDx=0;entryDy=0;" parent="1" source="z-l7okKNlic-L9526pkx-2" target="z-l7okKNlic-L9526pkx-33" edge="1">
          <mxGeometry relative="1" as="geometry" />
        </mxCell>
        <mxCell id="z-l7okKNlic-L9526pkx-50" style="edgeStyle=orthogonalEdgeStyle;rounded=0;orthogonalLoop=1;jettySize=auto;html=1;entryX=0;entryY=0.5;entryDx=0;entryDy=0;" parent="1" source="z-l7okKNlic-L9526pkx-2" target="z-l7okKNlic-L9526pkx-49" edge="1">
          <mxGeometry relative="1" as="geometry" />
        </mxCell>
        <mxCell id="z-l7okKNlic-L9526pkx-2" value="Complaint" style="rounded=0;whiteSpace=wrap;html=1;" parent="1" vertex="1">
          <mxGeometry x="353" y="210" width="120" height="60" as="geometry" />
        </mxCell>
        <mxCell id="z-l7okKNlic-L9526pkx-31" style="edgeStyle=orthogonalEdgeStyle;rounded=0;orthogonalLoop=1;jettySize=auto;html=1;entryX=1;entryY=0.5;entryDx=0;entryDy=0;endArrow=doubleBlock;endFill=1;" parent="1" source="z-l7okKNlic-L9526pkx-3" target="z-l7okKNlic-L9526pkx-29" edge="1">
          <mxGeometry relative="1" as="geometry" />
        </mxCell>
        <mxCell id="z-l7okKNlic-L9526pkx-61" style="edgeStyle=orthogonalEdgeStyle;rounded=0;orthogonalLoop=1;jettySize=auto;html=1;endArrow=block;endFill=0;entryX=0.458;entryY=-0.019;entryDx=0;entryDy=0;entryPerimeter=0;" parent="1" source="z-l7okKNlic-L9526pkx-3" target="z-l7okKNlic-L9526pkx-51" edge="1">
          <mxGeometry relative="1" as="geometry">
            <mxPoint x="418" y="380" as="targetPoint" />
            <Array as="points">
              <mxPoint x="707" y="360" />
              <mxPoint x="413" y="360" />
            </Array>
          </mxGeometry>
        </mxCell>
        <mxCell id="z-l7okKNlic-L9526pkx-3" value="Subjct" style="rounded=0;whiteSpace=wrap;html=1;" parent="1" vertex="1">
          <mxGeometry x="647" y="210" width="120" height="60" as="geometry" />
        </mxCell>
        <mxCell id="z-l7okKNlic-L9526pkx-5" value="" style="ellipse;whiteSpace=wrap;html=1;aspect=fixed;fillColor=#000000;" parent="1" vertex="1">
          <mxGeometry x="440" y="470" width="20" height="20" as="geometry" />
        </mxCell>
        <mxCell id="z-l7okKNlic-L9526pkx-8" value="document_number" style="text;html=1;align=center;verticalAlign=middle;whiteSpace=wrap;rounded=0;" parent="1" vertex="1">
          <mxGeometry x="460" y="472.5" width="110" height="15" as="geometry" />
        </mxCell>
        <mxCell id="z-l7okKNlic-L9526pkx-9" value="" style="ellipse;whiteSpace=wrap;html=1;aspect=fixed;" parent="1" vertex="1">
          <mxGeometry x="440" y="500" width="20" height="20" as="geometry" />
        </mxCell>
        <mxCell id="z-l7okKNlic-L9526pkx-10" value="name" style="text;html=1;align=center;verticalAlign=middle;whiteSpace=wrap;rounded=0;" parent="1" vertex="1">
          <mxGeometry x="460" y="502.5" width="40" height="15" as="geometry" />
        </mxCell>
        <mxCell id="z-l7okKNlic-L9526pkx-11" value="" style="ellipse;whiteSpace=wrap;html=1;aspect=fixed;" parent="1" vertex="1">
          <mxGeometry x="440" y="530" width="20" height="20" as="geometry" />
        </mxCell>
        <mxCell id="z-l7okKNlic-L9526pkx-12" value="city" style="text;html=1;align=center;verticalAlign=middle;whiteSpace=wrap;rounded=0;" parent="1" vertex="1">
          <mxGeometry x="460" y="532.5" width="40" height="15" as="geometry" />
        </mxCell>
        <mxCell id="z-l7okKNlic-L9526pkx-13" value="" style="ellipse;whiteSpace=wrap;html=1;aspect=fixed;" parent="1" vertex="1">
          <mxGeometry x="440" y="560" width="20" height="20" as="geometry" />
        </mxCell>
        <mxCell id="z-l7okKNlic-L9526pkx-14" value="date" style="text;html=1;align=center;verticalAlign=middle;whiteSpace=wrap;rounded=0;" parent="1" vertex="1">
          <mxGeometry x="460" y="562.5" width="40" height="15" as="geometry" />
        </mxCell>
        <mxCell id="z-l7okKNlic-L9526pkx-15" value="" style="ellipse;whiteSpace=wrap;html=1;aspect=fixed;" parent="1" vertex="1">
          <mxGeometry x="440" y="590" width="20" height="20" as="geometry" />
        </mxCell>
        <mxCell id="z-l7okKNlic-L9526pkx-16" value="livein" style="text;html=1;align=center;verticalAlign=middle;whiteSpace=wrap;rounded=0;" parent="1" vertex="1">
          <mxGeometry x="465" y="592.5" width="30" height="15" as="geometry" />
        </mxCell>
        <mxCell id="z-l7okKNlic-L9526pkx-26" value="make" style="rhombus;whiteSpace=wrap;html=1;" parent="1" vertex="1">
          <mxGeometry x="230" y="215" width="70" height="50" as="geometry" />
        </mxCell>
        <mxCell id="z-l7okKNlic-L9526pkx-28" value="" style="endArrow=none;html=1;rounded=0;" parent="1" edge="1">
          <mxGeometry width="50" height="50" relative="1" as="geometry">
            <mxPoint x="200" y="255" as="sourcePoint" />
            <mxPoint x="200" y="225" as="targetPoint" />
          </mxGeometry>
        </mxCell>
        <mxCell id="z-l7okKNlic-L9526pkx-29" value="make" style="rhombus;whiteSpace=wrap;html=1;" parent="1" vertex="1">
          <mxGeometry x="530" y="215" width="70" height="50" as="geometry" />
        </mxCell>
        <mxCell id="z-l7okKNlic-L9526pkx-33" value="" style="ellipse;whiteSpace=wrap;html=1;aspect=fixed;fillColor=#000000;" parent="1" vertex="1">
          <mxGeometry x="440" y="287.5" width="20" height="20" as="geometry" />
        </mxCell>
        <mxCell id="z-l7okKNlic-L9526pkx-36" value="complaint_number" style="text;html=1;align=center;verticalAlign=middle;whiteSpace=wrap;rounded=0;" parent="1" vertex="1">
          <mxGeometry x="460" y="290" width="110" height="15" as="geometry" />
        </mxCell>
        <mxCell id="z-l7okKNlic-L9526pkx-48" value="type_offence" style="text;html=1;align=center;verticalAlign=middle;whiteSpace=wrap;rounded=0;" parent="1" vertex="1">
          <mxGeometry x="460" y="320" width="80" height="15" as="geometry" />
        </mxCell>
        <mxCell id="z-l7okKNlic-L9526pkx-49" value="" style="ellipse;whiteSpace=wrap;html=1;aspect=fixed;" parent="1" vertex="1">
          <mxGeometry x="440" y="320" width="20" height="20" as="geometry" />
        </mxCell>
        <mxCell id="z-l7okKNlic-L9526pkx-53" style="edgeStyle=orthogonalEdgeStyle;rounded=0;orthogonalLoop=1;jettySize=auto;html=1;entryX=0;entryY=0.5;entryDx=0;entryDy=0;" parent="1" source="z-l7okKNlic-L9526pkx-51" target="z-l7okKNlic-L9526pkx-5" edge="1">
          <mxGeometry relative="1" as="geometry" />
        </mxCell>
        <mxCell id="z-l7okKNlic-L9526pkx-54" style="edgeStyle=orthogonalEdgeStyle;rounded=0;orthogonalLoop=1;jettySize=auto;html=1;entryX=0;entryY=0.5;entryDx=0;entryDy=0;" parent="1" source="z-l7okKNlic-L9526pkx-51" target="z-l7okKNlic-L9526pkx-9" edge="1">
          <mxGeometry relative="1" as="geometry" />
        </mxCell>
        <mxCell id="z-l7okKNlic-L9526pkx-55" style="edgeStyle=orthogonalEdgeStyle;rounded=0;orthogonalLoop=1;jettySize=auto;html=1;entryX=0;entryY=0.5;entryDx=0;entryDy=0;" parent="1" source="z-l7okKNlic-L9526pkx-51" target="z-l7okKNlic-L9526pkx-11" edge="1">
          <mxGeometry relative="1" as="geometry" />
        </mxCell>
        <mxCell id="z-l7okKNlic-L9526pkx-56" style="edgeStyle=orthogonalEdgeStyle;rounded=0;orthogonalLoop=1;jettySize=auto;html=1;entryX=0;entryY=0.5;entryDx=0;entryDy=0;" parent="1" source="z-l7okKNlic-L9526pkx-51" target="z-l7okKNlic-L9526pkx-13" edge="1">
          <mxGeometry relative="1" as="geometry" />
        </mxCell>
        <mxCell id="z-l7okKNlic-L9526pkx-57" style="edgeStyle=orthogonalEdgeStyle;rounded=0;orthogonalLoop=1;jettySize=auto;html=1;entryX=0;entryY=0.5;entryDx=0;entryDy=0;" parent="1" source="z-l7okKNlic-L9526pkx-51" target="z-l7okKNlic-L9526pkx-15" edge="1">
          <mxGeometry relative="1" as="geometry" />
        </mxCell>
        <mxCell id="z-l7okKNlic-L9526pkx-51" value="PersonDetails" style="rounded=0;whiteSpace=wrap;html=1;" parent="1" vertex="1">
          <mxGeometry x="358" y="400" width="120" height="60" as="geometry" />
        </mxCell>
        <mxCell id="z-l7okKNlic-L9526pkx-62" value="0" style="text;html=1;align=center;verticalAlign=middle;whiteSpace=wrap;rounded=0;" parent="1" vertex="1">
          <mxGeometry x="190" y="185" width="20" height="30" as="geometry" />
        </mxCell>
        <mxCell id="z-l7okKNlic-L9526pkx-63" value="*" style="text;html=1;align=center;verticalAlign=middle;whiteSpace=wrap;rounded=0;" parent="1" vertex="1">
          <mxGeometry x="333" y="185" width="20" height="30" as="geometry" />
        </mxCell>
        <mxCell id="z-l7okKNlic-L9526pkx-64" value="*" style="text;html=1;align=center;verticalAlign=middle;whiteSpace=wrap;rounded=0;" parent="1" vertex="1">
          <mxGeometry x="475" y="185" width="15" height="30" as="geometry" />
        </mxCell>
        <mxCell id="z-l7okKNlic-L9526pkx-65" value="0" style="text;html=1;align=center;verticalAlign=middle;whiteSpace=wrap;rounded=0;" parent="1" vertex="1">
          <mxGeometry x="620" y="185" width="20" height="30" as="geometry" />
        </mxCell>
        <mxCell id="z-l7okKNlic-L9526pkx-66" value="" style="endArrow=none;html=1;rounded=0;" parent="1" edge="1">
          <mxGeometry width="50" height="50" relative="1" as="geometry">
            <mxPoint x="629.58" y="255" as="sourcePoint" />
            <mxPoint x="629.58" y="225" as="targetPoint" />
          </mxGeometry>
        </mxCell>
      </root>
    </mxGraphModel>
  </diagram>
</mxfile>
